<?xml version="1.0" encoding="UTF-8"?>
<svg width="262.5pt" height="44.5pt" version="1.1" viewBox="0 0 1768.4 299.79" xmlns="http://www.w3.org/2000/svg">
<rect x="-35.18" y="-20.211" width="256" height="256" fill="none"/>
<g transform="translate(-33.558 8.9736)" fill="none" stroke="#24292f" stroke-linecap="round" stroke-linejoin="round" stroke-width="8">
<rect x="40" y="40" width="48" height="176" rx="8"/>
<line x1="40" x2="88" y1="80" y2="80"/>
<rect x="88" y="40" width="48" height="176" rx="8"/>
<line x1="88" x2="136" y1="176" y2="176"/>
<rect transform="rotate(-15)" x="119" y="81.364" width="48" height="176" rx="8"/>
<line x1="171.2" x2="217.6" y1="179.2" y2="166.7"/>
<line x1="146.4" x2="192.8" y1="86.4" y2="74"/>
</g>
<g transform="matrix(4.9372 0 0 4.7254 -16.403 -80.727)" fill="#24292f">
<path d="m50.303 26.631h30.016q1.664 0 1.664 1.536v5.248q0 0.64-0.512 1.088-0.512 0.384-1.216 0.384t-1.216-0.384q-0.512-0.448-0.512-1.088v-3.776h-20.992v14.848h18.048v-2.368q0-0.64 0.448-1.024 0.512-0.448 1.216-0.448t1.152 0.448q0.512 0.384 0.512 1.024v7.808q0 0.64-0.512 1.088-0.448 0.384-1.152 0.384t-1.216-0.384q-0.448-0.448-0.448-1.088v-2.432h-18.048v15.04h22.72q0.768 0 1.216 0.448 0.512 0.384 0.512 1.024t-0.512 1.088-1.216 0.448h-24.576q-1.6 0-1.6-1.408v-34.496h-3.776q-0.64 0-1.088-0.384-0.384-0.448-0.384-1.088t0.384-1.088q0.448-0.448 1.088-0.448z"/>
<path d="m94.015 46.151q3.328-5.184 8.832-5.184 5.568 0 8.448 3.584 2.944 3.52 2.944 8.96t-3.008 9.088q-2.944 3.584-8.256 3.584-5.248 0-8.704-3.648v16.192q0 0.64-0.512 1.024-0.512 0.448-1.216 0.448t-1.216-0.448q-0.512-0.384-0.512-1.024v-32.896q0-1.216-1.216-1.216h-3.008q-0.64 0-1.088-0.384-0.384-0.448-0.384-1.088t0.384-1.088q0.448-0.448 1.088-0.448h3.456q4.096 0 3.968 4.544zm0.256 13.248q4.096 3.84 8.192 3.84 4.096 0 6.208-2.688 2.176-2.688 2.176-7.104t-2.112-6.976-5.824-2.56q-5.44 0-8.64 6.08z"/>
<path d="m144.7 62.535h3.008q0.64 0 1.024 0.448 0.448 0.384 0.448 1.024t-0.448 1.088q-0.384 0.448-1.024 0.448h-3.456q-3.968 0-3.968-4.352-3.84 4.992-9.664 4.992-3.456 0-5.696-1.728-2.176-1.792-2.176-5.184v-13.44q0-1.216-1.728-1.216h-2.496q-0.64 0-1.088-0.448-0.384-0.448-0.384-1.088t0.384-1.024q0.448-0.448 1.088-0.448h2.496q5.184 0 5.184 4.16v13.504q0 1.92 1.152 2.944 1.216 1.024 3.328 1.024 5.888 0 9.344-6.144v-14.656q0-0.64 0.512-1.024 0.512-0.448 1.216-0.448t1.216 0.448q0.512 0.384 0.512 1.024v18.88q0 1.216 1.216 1.216z"/>
<path d="m157.31 59.399q4.224 3.84 8.192 3.84 4.032 0 6.208-2.688t2.176-7.104-2.176-6.976q-2.112-2.56-5.824-2.56-5.248 0-8.576 5.952zm-3.456-38.848h-4.224q-0.64 0-1.024-0.384-0.448-0.448-0.448-1.088t0.448-1.088q0.384-0.448 1.024-0.448h5.952q0.64 0 1.152 0.448 0.576 0.448 0.576 1.088v26.752q3.264-4.864 8.704-4.864t8.32 3.456q2.944 3.456 2.944 9.088t-3.008 9.152-8 3.52-8.96-3.648v2.176q0 0.64-0.512 1.024-0.512 0.448-1.216 0.448t-1.216-0.448q-0.512-0.384-0.512-1.024z"/>
<path d="m190.01 29.639v18.048h12.8q10.56 0 10.56-9.088 0-4.8-2.688-6.848-2.624-2.112-7.872-2.112zm0 20.992v14.08q0 0.64-0.512 1.024-0.512 0.448-1.216 0.448t-1.216-0.448q-0.512-0.384-0.512-1.024v-35.072h-3.84q-0.64 0-1.088-0.384-0.384-0.448-0.384-1.088t0.384-1.088q0.448-0.448 1.088-0.448h20.096q14.016 0 14.016 11.968 0 8.64-7.616 11.136l8.256 14.272q0.128 0.256 0.128 0.576 0 0.896-0.768 1.28-0.704 0.384-1.28 0.384t-1.024-0.704l-8.768-15.04q-1.664 0.128-2.944 0.128z"/>
<path d="m242.75 51.463q-0.192-3.456-2.048-5.504-1.792-2.048-5.248-2.048-3.392 0-5.696 2.112-2.304 2.048-2.88 5.44zm0.128 7.936q0.448-0.768 1.024-0.768t1.152 0.32q0.576 0.256 0.768 0.896 0.256 0.576-0.064 1.088-3.264 5.248-10.368 5.248-5.632 0-8.896-3.584-3.2-3.648-3.2-9.152t3.328-8.96q3.328-3.52 8.768-3.52t8.064 3.264q2.688 3.264 2.688 8.704 0 1.472-1.664 1.472l-17.728 0.064q0.256 3.968 2.56 6.4 2.368 2.368 6.08 2.368 4.992 0 7.488-3.84z"/>
<path d="m268.86 55.623q-4.224-1.152-7.232-1.152-2.944 0-4.864 1.152-1.856 1.152-1.856 3.264 0 2.048 1.216 3.2t3.328 1.152q5.888 0 9.408-6.4zm5.12 6.912h2.496q0.64 0 1.024 0.448 0.448 0.448 0.448 1.088t-0.448 1.088q-0.384 0.384-1.024 0.384h-2.816q-2.304 0-3.584-1.024-1.216-1.024-1.216-2.88 0-0.32 0.064-0.704-3.392 5.248-9.856 5.248-3.584 0-5.632-1.92-1.984-1.92-1.984-5.312 0-3.456 2.688-5.376 2.752-1.984 6.784-1.984 4.096 0 7.936 1.344v-4.416q0-3.072-2.24-3.968-1.728-0.64-4.8-0.64-3.008 0-5.568 1.024v4.032q0 0.64-0.512 1.088-0.512 0.384-1.216 0.384t-1.216-0.384q-0.512-0.448-0.512-1.088v-4.864q0-0.832 0.832-1.28 3.136-1.856 8.32-1.856t7.744 1.728q2.56 1.664 2.56 5.824v12.8q0 1.216 1.728 1.216z"/>
<path d="m291.65 43.911q-3.648 0-5.824 2.624t-2.176 7.104 2.112 7.04q2.176 2.56 5.888 2.56 5.376 0 8.576-6.08v-9.408q-1.664-1.6-4.032-2.688-2.304-1.152-4.544-1.152zm8.576-23.36h-4.224q-0.64 0-1.088-0.384-0.384-0.448-0.384-1.088t0.384-1.088q0.448-0.448 1.088-0.448h5.952q0.704 0 1.216 0.448t0.512 1.088v42.24q0 1.216 1.28 1.216h2.944q0.64 0 1.024 0.448 0.448 0.384 0.448 1.024t-0.448 1.088q-0.384 0.448-1.024 0.448h-3.392q-4.16 0-4.032-4.544-1.408 2.176-3.712 3.712-2.24 1.472-5.12 1.472-5.696 0-8.576-3.648-2.816-3.648-2.816-9.024t2.944-8.96q3.008-3.584 8.192-3.584t8.832 3.392z"/>
<path d="m332.09 51.463q-0.192-3.456-2.048-5.504-1.792-2.048-5.248-2.048-3.392 0-5.696 2.112-2.304 2.048-2.88 5.44zm0.128 7.936q0.448-0.768 1.024-0.768t1.152 0.32q0.576 0.256 0.768 0.896 0.256 0.576-0.064 1.088-3.264 5.248-10.368 5.248-5.632 0-8.896-3.584-3.2-3.648-3.2-9.152t3.328-8.96q3.328-3.52 8.768-3.52t8.064 3.264q2.688 3.264 2.688 8.704 0 1.472-1.664 1.472l-17.728 0.064q0.256 3.968 2.56 6.4 2.368 2.368 6.08 2.368 4.992 0 7.488-3.84z"/>
<path d="m339.97 41.607h3.264q4.032 0 4.16 4.352 3.456-4.992 8.192-4.992 2.688 0 4.544 1.024 0.896 0.512 0.896 1.344v5.376q0 0.64-0.512 1.088-0.512 0.384-1.216 0.384t-1.216-0.384q-0.512-0.448-0.512-1.088v-4.48q-0.832-0.32-2.496-0.32t-3.776 1.6q-2.112 1.536-3.648 4.608v14.592q0 0.64-0.512 1.024-0.512 0.448-1.216 0.448t-1.216-0.448q-0.512-0.384-0.512-1.024v-18.88q0-1.216-1.28-1.216h-2.944q-0.64 0-1.088-0.384-0.384-0.448-0.384-1.088t0.384-1.088q0.448-0.448 1.088-0.448z"/>
</g>
</svg>
